<?xml version="1.0" encoding="UTF-8"?>
<!-- var-15 chunky icon: bold simplified silhouette for 32px survival -->
<svg width="1024" height="1024" viewBox="0 0 1024 1024" xmlns="http://www.w3.org/2000/svg">
  <defs>
    <filter id="outer" x="-50%" y="-50%" width="200%" height="200%">
      <feGaussianBlur in="SourceGraphic" stdDeviation="42"/>
    </filter>
    <filter id="inner" x="-30%" y="-30%" width="160%" height="160%">
      <feGaussianBlur in="SourceGraphic" stdDeviation="14"/>
    </filter>
  </defs>
  <rect width="1024" height="1024" fill="#0B0B12"/>
  <path d="M 508 872
       C 300 868, 188 718, 198 528
       C 208 368, 328 238, 508 218
       C 648 202, 768 298, 792 468
       C 816 648, 688 858, 508 872
       Z"
    fill="#FFD080" filter="url(#outer)" opacity="0.7"/>
  <path d="M 508 872
       C 300 868, 188 718, 198 528
       C 208 368, 328 238, 508 218
       C 648 202, 768 298, 792 468
       C 816 648, 688 858, 508 872
       Z"
    fill="#FFB300" filter="url(#inner)"/>
  <path d="M 508 872
       C 300 868, 188 718, 198 528
       C 208 368, 328 238, 508 218
       C 648 202, 768 298, 792 468
       C 816 648, 688 858, 508 872
       Z"
    fill="#FFB300"/>
</svg>
