<?xml version="1.0" encoding="UTF-8"?>
<!-- var-14 banganapalli: tall oblong, gentle shoulder (South Indian) -->
<svg width="1024" height="1024" viewBox="0 0 1024 1024" xmlns="http://www.w3.org/2000/svg">
  <defs>
    <filter id="outer" x="-50%" y="-50%" width="200%" height="200%">
      <feGaussianBlur in="SourceGraphic" stdDeviation="42"/>
    </filter>
    <filter id="inner" x="-30%" y="-30%" width="160%" height="160%">
      <feGaussianBlur in="SourceGraphic" stdDeviation="14"/>
    </filter>
  </defs>
  <rect width="1024" height="1024" fill="#0B0B12"/>
  <path d="M 518 918
       C 338 912, 218 798, 212 638
       C 206 478, 268 348, 378 268
       C 438 228, 508 208, 578 202
       C 628 198, 662 212, 658 242
       C 652 288, 678 388, 688 518
       C 698 688, 628 858, 518 918
       Z"
    fill="#FFD080" filter="url(#outer)" opacity="0.7"/>
  <path d="M 518 918
       C 338 912, 218 798, 212 638
       C 206 478, 268 348, 378 268
       C 438 228, 508 208, 578 202
       C 628 198, 662 212, 658 242
       C 652 288, 678 388, 688 518
       C 698 688, 628 858, 518 918
       Z"
    fill="#FFB300" filter="url(#inner)"/>
  <path d="M 518 918
       C 338 912, 218 798, 212 638
       C 206 478, 268 348, 378 268
       C 438 228, 508 208, 578 202
       C 628 198, 662 212, 658 242
       C 652 288, 678 388, 688 518
       C 698 688, 628 858, 518 918
       Z"
    fill="#FFB300"/>
</svg>
