<?xml version="1.0" encoding="UTF-8"?>
<!-- var-04 seed orbit: ring + oblong seed void -->
<svg width="1024" height="1024" viewBox="0 0 1024 1024" xmlns="http://www.w3.org/2000/svg">
  <defs>
    <filter id="outer" x="-50%" y="-50%" width="200%" height="200%">
      <feGaussianBlur in="SourceGraphic" stdDeviation="42"/>
    </filter>
    <filter id="inner" x="-30%" y="-30%" width="160%" height="160%">
      <feGaussianBlur in="SourceGraphic" stdDeviation="14"/>
    </filter>
  </defs>
  <rect width="1024" height="1024" fill="#0B0B12"/>
  <path fill-rule="evenodd"
    d="M 512 172
       C 712 172, 852 312, 852 512
       C 852 712, 712 852, 512 852
       C 312 852, 172 712, 172 512
       C 172 312, 312 172, 512 172
       Z
       M 548 438
       C 598 418, 648 448, 658 498
       C 668 548, 628 598, 578 608
       C 528 618, 478 588, 468 538
       C 458 488, 498 458, 548 438
       Z"
    fill="#FFD080" filter="url(#outer)" opacity="0.7"/>
  <path fill-rule="evenodd"
    d="M 512 172
       C 712 172, 852 312, 852 512
       C 852 712, 712 852, 512 852
       C 312 852, 172 712, 172 512
       C 172 312, 312 172, 512 172
       Z
       M 548 438
       C 598 418, 648 448, 658 498
       C 668 548, 628 598, 578 608
       C 528 618, 478 588, 468 538
       C 458 488, 498 458, 548 438
       Z"
    fill="#FFB300" filter="url(#inner)"/>
  <path fill-rule="evenodd"
    d="M 512 172
       C 712 172, 852 312, 852 512
       C 852 712, 712 852, 512 852
       C 312 852, 172 712, 172 512
       C 172 312, 312 172, 512 172
       Z
       M 548 438
       C 598 418, 648 448, 658 498
       C 668 548, 628 598, 578 608
       C 528 618, 478 588, 468 538
       C 458 488, 498 458, 548 438
       Z"
    fill="#FFB300"/>
</svg>
