<?xml version="1.0" encoding="UTF-8"?>
<!-- var-07 little blip: circle body + upper-right nick (controlled asymmetry) -->
<svg width="1024" height="1024" viewBox="0 0 1024 1024" xmlns="http://www.w3.org/2000/svg">
  <defs>
    <filter id="outer" x="-50%" y="-50%" width="200%" height="200%">
      <feGaussianBlur in="SourceGraphic" stdDeviation="42"/>
    </filter>
    <filter id="inner" x="-30%" y="-30%" width="160%" height="160%">
      <feGaussianBlur in="SourceGraphic" stdDeviation="14"/>
    </filter>
  </defs>
  <rect width="1024" height="1024" fill="#0B0B12"/>
  <path fill-rule="evenodd"
    d="M 512 192
       C 688 192, 832 336, 832 512
       C 832 688, 688 832, 512 832
       C 336 832, 192 688, 192 512
       C 192 336, 336 192, 512 192
       Z
       M 668 268
       C 728 268, 756 328, 756 388
       C 756 448, 700 472, 648 440
       C 596 408, 608 268, 668 268
       Z"
    fill="#FFD080" filter="url(#outer)" opacity="0.7"/>
  <path fill-rule="evenodd"
    d="M 512 192
       C 688 192, 832 336, 832 512
       C 832 688, 688 832, 512 832
       C 336 832, 192 688, 192 512
       C 192 336, 336 192, 512 192
       Z
       M 668 268
       C 728 268, 756 328, 756 388
       C 756 448, 700 472, 648 440
       C 596 408, 608 268, 668 268
       Z"
    fill="#FFB300" filter="url(#inner)"/>
  <path fill-rule="evenodd"
    d="M 512 192
       C 688 192, 832 336, 832 512
       C 832 688, 688 832, 512 832
       C 336 832, 192 688, 192 512
       C 192 336, 336 192, 512 192
       Z
       M 668 268
       C 728 268, 756 328, 756 388
       C 756 448, 700 472, 648 440
       C 596 408, 608 268, 668 268
       Z"
    fill="#FFB300"/>
</svg>
