<?xml version="1.0" encoding="UTF-8"?>
<!-- var-01 botanica: pomological side profile, ovate-oblique -->
<svg width="1024" height="1024" viewBox="0 0 1024 1024" xmlns="http://www.w3.org/2000/svg">
  <defs>
    <filter id="outer" x="-50%" y="-50%" width="200%" height="200%">
      <feGaussianBlur in="SourceGraphic" stdDeviation="42"/>
    </filter>
    <filter id="inner" x="-30%" y="-30%" width="160%" height="160%">
      <feGaussianBlur in="SourceGraphic" stdDeviation="14"/>
    </filter>
  </defs>
  <rect width="1024" height="1024" fill="#0B0B12"/>
  <path d="M 504 898
       C 340 890, 218 778, 212 628
       C 206 488, 258 378, 338 322
       C 378 294, 422 268, 468 248
       C 512 228, 558 216, 598 212
       C 632 208, 652 220, 646 244
       C 638 272, 662 328, 682 408
       C 702 508, 688 658, 578 798
       C 542 852, 522 894, 504 898
       Z"
    fill="#FFD080" filter="url(#outer)" opacity="0.7"/>
  <path d="M 504 898
       C 340 890, 218 778, 212 628
       C 206 488, 258 378, 338 322
       C 378 294, 422 268, 468 248
       C 512 228, 558 216, 598 212
       C 632 208, 652 220, 646 244
       C 638 272, 662 328, 682 408
       C 702 508, 688 658, 578 798
       C 542 852, 522 894, 504 898
       Z"
    fill="#FFB300" filter="url(#inner)"/>
  <path d="M 504 898
       C 340 890, 218 778, 212 628
       C 206 488, 258 378, 338 322
       C 378 294, 422 268, 468 248
       C 512 228, 558 216, 598 212
       C 632 208, 652 220, 646 244
       C 638 272, 662 328, 682 408
       C 702 508, 688 658, 578 798
       C 542 852, 522 894, 504 898
       Z"
    fill="#FFB300"/>
</svg>
